<svg xmlns="http://www.w3.org/2000/svg" xmlns:xlink="http://www.w3.org/1999/xlink" version="1.1" width="256" height="256" viewBox="0 0 256 256" xml:space="preserve">
<g style="stroke: none; stroke-width: 0; stroke-dasharray: none; stroke-linecap: butt; stroke-linejoin: miter; stroke-miterlimit: 10; fill: none; fill-rule: nonzero; opacity: 1;" transform="translate(1.4065934065934016 1.4065934065934016) scale(2.81 2.81)">
	<path d="M 84.646 11.504 C 75.554 1.233 58.335 -0.041 45 13.074 C 31.665 -0.041 14.446 1.233 5.354 11.504 c -9.671 10.926 -5.609 31.318 7.123 47.615 C 18.931 67.38 34.874 80.832 45 86.481 c 10.126 -5.649 26.069 -19.101 32.523 -27.362 C 90.255 42.822 94.318 22.43 84.646 11.504 z" style="stroke: none; stroke-width: 1; stroke-dasharray: none; stroke-linecap: butt; stroke-linejoin: miter; stroke-miterlimit: 10; fill: rgb(251,185,215); fill-rule: nonzero; opacity: 1;" transform=" matrix(1 0 0 1 0 0) " stroke-linecap="round"/>
	<ellipse cx="27.1" cy="39.440999999999995" rx="4.37" ry="6.001" style="stroke: none; stroke-width: 1; stroke-dasharray: none; stroke-linecap: butt; stroke-linejoin: miter; stroke-miterlimit: 10; fill: rgb(249,110,180); fill-rule: nonzero; opacity: 1;" transform=" matrix(0.5 -0.866 0.866 0.5 -20.6095 43.1939) "/>
	<ellipse cx="62.900999999999996" cy="39.449999999999996" rx="6.001" ry="4.37" style="stroke: none; stroke-width: 1; stroke-dasharray: none; stroke-linecap: butt; stroke-linejoin: miter; stroke-miterlimit: 10; fill: rgb(249,110,180); fill-rule: nonzero; opacity: 1;" transform=" matrix(0.866 -0.5 0.5 0.866 -11.296 36.7335) "/>
	<path d="M 43.646 50.027 c -2.279 0 -4.547 -0.64 -6.542 -1.899 c -0.701 -0.442 -0.91 -1.369 -0.468 -2.069 c 0.443 -0.701 1.37 -0.909 2.069 -0.467 c 2.629 1.66 5.884 1.894 8.711 0.626 c 2.825 -1.267 4.815 -3.855 5.324 -6.922 c 0.135 -0.818 0.914 -1.371 1.725 -1.235 c 0.817 0.136 1.37 0.908 1.234 1.725 c -0.673 4.062 -3.311 7.49 -7.056 9.169 C 47.045 49.672 45.342 50.027 43.646 50.027 z" style="stroke: none; stroke-width: 1; stroke-dasharray: none; stroke-linecap: butt; stroke-linejoin: miter; stroke-miterlimit: 10; fill: rgb(119,91,103); fill-rule: nonzero; opacity: 1;" transform=" matrix(1 0 0 1 0 0) " stroke-linecap="round"/>
	<path d="M 30.17 33.787 c -0.829 0 -1.5 -0.671 -1.5 -1.5 v -5.411 c 0 -0.829 0.671 -1.5 1.5 -1.5 s 1.5 0.671 1.5 1.5 v 5.411 C 31.67 33.115 30.999 33.787 30.17 33.787 z" style="stroke: none; stroke-width: 1; stroke-dasharray: none; stroke-linecap: butt; stroke-linejoin: miter; stroke-miterlimit: 10; fill: rgb(119,91,103); fill-rule: nonzero; opacity: 1;" transform=" matrix(1 0 0 1 0 0) " stroke-linecap="round"/>
	<path d="M 62.506 36.168 c -0.263 0 -0.528 -0.068 -0.77 -0.213 l -6.795 -4.067 c -0.452 -0.271 -0.729 -0.76 -0.729 -1.287 s 0.277 -1.016 0.729 -1.287 l 6.795 -4.067 c 0.709 -0.425 1.632 -0.195 2.058 0.517 c 0.426 0.711 0.194 1.632 -0.517 2.058 l -4.645 2.78 l 4.645 2.78 c 0.711 0.426 0.942 1.347 0.517 2.058 C 63.513 35.908 63.016 36.168 62.506 36.168 z" style="stroke: none; stroke-width: 1; stroke-dasharray: none; stroke-linecap: butt; stroke-linejoin: miter; stroke-miterlimit: 10; fill: rgb(119,91,103); fill-rule: nonzero; opacity: 1;" transform=" matrix(1 0 0 1 0 0) " stroke-linecap="round"/>
</g>
</svg>